<svg width="9" height="15" viewBox="0 0 9 15" fill="none" xmlns="http://www.w3.org/2000/svg">
<path d="M8.66685 6.9147L1.99166 0.239633C1.83727 0.0851216 1.63118 2.68812e-07 1.41142 2.30389e-07C1.19167 1.91966e-07 0.985572 0.0851214 0.831183 0.239632L0.339602 0.731092C0.0197261 1.05133 0.019726 1.57182 0.339601 1.89157L5.94492 7.49689L0.33338 13.1084C0.178991 13.2629 0.0937476 13.4689 0.0937476 13.6885C0.0937476 13.9084 0.178991 14.1144 0.33338 14.269L0.824961 14.7604C0.979472 14.9149 1.18545 15 1.4052 15C1.62495 15 1.83105 14.9149 1.98544 14.7604L8.66685 8.0792C8.82161 7.92421 8.9066 7.71726 8.90612 7.49726C8.9066 7.27641 8.82161 7.06958 8.66685 6.9147Z" fill="white"/>
</svg>
